<mxfile host="app.diagrams.net" modified="2023-05-26T03:05:42.974Z" agent="Mozilla/5.0 (Windows NT 10.0; Win64; x64) AppleWebKit/537.36 (KHTML, like Gecko) Chrome/113.0.0.0 Safari/537.36" etag="IKZmpu4VxAImFp1Z_JOY" version="21.3.4" type="device">
  <diagram name="PÃ¡gina-1" id="Zwoy2QlS7rIIhryINUQT">
    <mxGraphModel dx="1434" dy="2364" grid="1" gridSize="10" guides="1" tooltips="1" connect="1" arrows="1" fold="1" page="1" pageScale="1" pageWidth="1200" pageHeight="1600" background="#FFFFFF" math="0" shadow="0">
      <root>
        <mxCell id="0" />
        <mxCell id="1" parent="0" />
        <mxCell id="WnngII1H0hZmlAFaV6ZT-37" style="edgeStyle=orthogonalEdgeStyle;rounded=0;orthogonalLoop=1;jettySize=auto;html=1;labelBackgroundColor=none;strokeColor=#788AA3;fontColor=default;" edge="1" parent="1" source="WnngII1H0hZmlAFaV6ZT-8" target="WnngII1H0hZmlAFaV6ZT-22">
          <mxGeometry relative="1" as="geometry" />
        </mxCell>
        <mxCell id="WnngII1H0hZmlAFaV6ZT-8" value="SUCURSALES" style="swimlane;childLayout=stackLayout;horizontal=1;startSize=20;horizontalStack=0;rounded=1;fontSize=14;fontStyle=0;strokeWidth=2;resizeParent=0;resizeLast=1;shadow=0;dashed=0;align=center;arcSize=4;whiteSpace=wrap;html=1;fillColor=#B2C9AB;fontColor=#46495D;strokeColor=#788AA3;points=[[0,0,0,0,0],[0,0.25,0,0,0],[0,0.5,0,0,0],[0,0.75,0,0,0],[0,1,0,0,0],[0.25,0,0,0,0],[0.25,1,0,0,0],[0.5,0,0,0,0],[0.5,1,0,0,0],[0.75,0,0,0,0],[0.75,1,0,0,0],[1,0,0,0,0],[1,0.25,0,0,0],[1,0.5,0,0,0],[1,0.75,0,0,0],[1,1,0,0,0]];labelBackgroundColor=none;" vertex="1" parent="1">
          <mxGeometry x="170" y="240" width="160" height="230" as="geometry">
            <mxRectangle x="310" y="330" width="80" height="30" as="alternateBounds" />
          </mxGeometry>
        </mxCell>
        <mxCell id="WnngII1H0hZmlAFaV6ZT-9" value="&lt;table style=&quot;border-collapse:&lt;br/&gt; collapse;width:140pt&quot; width=&quot;187&quot; cellspacing=&quot;0&quot; cellpadding=&quot;0&quot; border=&quot;0&quot;&gt; &lt;colgroup&gt;&lt;col style=&quot;mso-width-source:userset;mso-width-alt:6838;width:140pt&quot; width=&quot;187&quot;&gt;&lt;/colgroup&gt; &lt;tbody&gt;&lt;tr style=&quot;height:15.0pt&quot; height=&quot;20&quot;&gt;  &lt;td style=&quot;height:15.0pt;width:140pt&quot; width=&quot;187&quot; class=&quot;xl65&quot; height=&quot;20&quot;&gt;id_sucursal (PK)&lt;/td&gt; &lt;/tr&gt; &lt;tr style=&quot;height:15.0pt&quot; height=&quot;20&quot;&gt;  &lt;td style=&quot;height:15.0pt;border-top:none&quot; class=&quot;xl65&quot; height=&quot;20&quot;&gt;nombre_sucursal&lt;/td&gt; &lt;/tr&gt; &lt;tr style=&quot;height:15.0pt&quot; height=&quot;20&quot;&gt;  &lt;td style=&quot;height:15.0pt;border-top:none&quot; class=&quot;xl65&quot; height=&quot;20&quot;&gt;direccion_sucursal&lt;/td&gt; &lt;/tr&gt; &lt;tr style=&quot;height:15.0pt&quot; height=&quot;20&quot;&gt;  &lt;td style=&quot;height:15.0pt;border-top:none&quot; class=&quot;xl65&quot; height=&quot;20&quot;&gt;localidad_sucursal&lt;/td&gt; &lt;/tr&gt; &lt;tr style=&quot;height:15.0pt&quot; height=&quot;20&quot;&gt;  &lt;td style=&quot;height:15.0pt;border-top:none&quot; class=&quot;xl65&quot; height=&quot;20&quot;&gt;cp_sucursal&lt;/td&gt; &lt;/tr&gt; &lt;tr style=&quot;height:15.0pt&quot; height=&quot;20&quot;&gt;  &lt;td style=&quot;height:15.0pt;border-top:none&quot; class=&quot;xl65&quot; height=&quot;20&quot;&gt;tel_sucursal&lt;/td&gt; &lt;/tr&gt; &lt;tr style=&quot;height:15.0pt&quot; height=&quot;20&quot;&gt;  &lt;td style=&quot;height:15.0pt;border-top:none&quot; class=&quot;xl65&quot; height=&quot;20&quot;&gt;mail_sucursal&lt;/td&gt; &lt;/tr&gt; &lt;tr style=&quot;height:15.0pt&quot; height=&quot;20&quot;&gt;  &lt;td style=&quot;height:15.0pt;border-top:none&quot; class=&quot;xl65&quot; height=&quot;20&quot;&gt;horario_sucursal&lt;/td&gt; &lt;/tr&gt; &lt;tr style=&quot;height:15.0pt&quot; height=&quot;20&quot;&gt;  &lt;td style=&quot;height:15.0pt;border-top:none&quot; class=&quot;xl65&quot; height=&quot;20&quot;&gt;latitud&lt;/td&gt; &lt;/tr&gt; &lt;tr style=&quot;height:15.0pt&quot; height=&quot;20&quot;&gt;  &lt;td style=&quot;height:15.0pt;border-top:none&quot; class=&quot;xl65&quot; height=&quot;20&quot;&gt;longitud&lt;/td&gt; &lt;/tr&gt;&lt;/tbody&gt;&lt;/table&gt;" style="align=left;strokeColor=none;fillColor=none;spacingLeft=4;fontSize=12;verticalAlign=top;resizable=0;rotatable=0;part=1;html=1;labelBackgroundColor=none;fontColor=#46495D;" vertex="1" parent="WnngII1H0hZmlAFaV6ZT-8">
          <mxGeometry y="20" width="160" height="210" as="geometry" />
        </mxCell>
        <mxCell id="WnngII1H0hZmlAFaV6ZT-17" value="OPERADORAS" style="swimlane;childLayout=stackLayout;horizontal=1;startSize=20;horizontalStack=0;rounded=1;fontSize=14;fontStyle=0;strokeWidth=2;resizeParent=0;resizeLast=1;shadow=0;dashed=0;align=center;arcSize=4;whiteSpace=wrap;html=1;fillColor=#B2C9AB;fontColor=#46495D;strokeColor=#788AA3;labelBackgroundColor=none;" vertex="1" parent="1">
          <mxGeometry x="40" y="600" width="160" height="220" as="geometry">
            <mxRectangle x="310" y="330" width="80" height="30" as="alternateBounds" />
          </mxGeometry>
        </mxCell>
        <mxCell id="WnngII1H0hZmlAFaV6ZT-18" value="&lt;table style=&quot;border-collapse:&lt;br/&gt; collapse;width:140pt&quot; width=&quot;187&quot; cellspacing=&quot;0&quot; cellpadding=&quot;0&quot; border=&quot;0&quot;&gt; &lt;colgroup&gt;&lt;col style=&quot;mso-width-source:userset;mso-width-alt:6838;width:140pt&quot; width=&quot;187&quot;&gt;&lt;/colgroup&gt; &lt;tbody&gt;&lt;tr style=&quot;height:15.0pt&quot; height=&quot;20&quot;&gt;  &lt;td style=&quot;height:15.0pt;width:140pt&quot; width=&quot;187&quot; class=&quot;xl65&quot; height=&quot;20&quot;&gt;id_operadora (PK)&lt;/td&gt; &lt;/tr&gt; &lt;tr style=&quot;height:15.0pt&quot; height=&quot;20&quot;&gt;  &lt;td style=&quot;height:15.0pt;border-top:none&quot; class=&quot;xl65&quot; height=&quot;20&quot;&gt;nombre_operadora&lt;/td&gt; &lt;/tr&gt; &lt;tr style=&quot;height:15.0pt&quot; height=&quot;20&quot;&gt;  &lt;td style=&quot;height:15.0pt;border-top:none&quot; class=&quot;xl65&quot; height=&quot;20&quot;&gt;apellido_operadora&lt;/td&gt; &lt;/tr&gt; &lt;tr style=&quot;height:15.0pt&quot; height=&quot;20&quot;&gt;  &lt;td style=&quot;height:15.0pt;border-top:none&quot; class=&quot;xl65&quot; height=&quot;20&quot;&gt;tel_operadora&lt;/td&gt; &lt;/tr&gt; &lt;tr style=&quot;height:15.0pt&quot; height=&quot;20&quot;&gt;  &lt;td style=&quot;height:15.0pt;border-top:none&quot; class=&quot;xl65&quot; height=&quot;20&quot;&gt;direccion_operadora&lt;/td&gt; &lt;/tr&gt; &lt;tr style=&quot;height:15.0pt&quot; height=&quot;20&quot;&gt;  &lt;td style=&quot;height:15.0pt;border-top:none&quot; class=&quot;xl65&quot; height=&quot;20&quot;&gt;localidad_operadora&lt;/td&gt; &lt;/tr&gt; &lt;tr style=&quot;height:15.0pt&quot; height=&quot;20&quot;&gt;  &lt;td style=&quot;height:15.0pt;border-top:none&quot; class=&quot;xl65&quot; height=&quot;20&quot;&gt;fecha_ingreso_operadora&lt;/td&gt; &lt;/tr&gt; &lt;tr style=&quot;height:15.0pt&quot; height=&quot;20&quot;&gt;  &lt;td style=&quot;height:15.0pt;border-top:none&quot; class=&quot;xl65&quot; height=&quot;20&quot;&gt;dispo_operadora&lt;/td&gt; &lt;/tr&gt; &lt;tr style=&quot;height:15.0pt&quot; height=&quot;20&quot;&gt;  &lt;td style=&quot;height:15.0pt;border-top:none&quot; class=&quot;xl65&quot; height=&quot;20&quot;&gt;id_sucursal (FK)&lt;/td&gt; &lt;/tr&gt;&lt;/tbody&gt;&lt;/table&gt;" style="align=left;strokeColor=none;fillColor=none;spacingLeft=4;fontSize=12;verticalAlign=top;resizable=0;rotatable=0;part=1;html=1;labelBackgroundColor=none;fontColor=#46495D;" vertex="1" parent="WnngII1H0hZmlAFaV6ZT-17">
          <mxGeometry y="20" width="160" height="200" as="geometry" />
        </mxCell>
        <mxCell id="WnngII1H0hZmlAFaV6ZT-19" value="TRATAMIENTOS" style="swimlane;childLayout=stackLayout;horizontal=1;startSize=20;horizontalStack=0;rounded=1;fontSize=14;fontStyle=0;strokeWidth=2;resizeParent=0;resizeLast=1;shadow=0;dashed=0;align=center;arcSize=4;whiteSpace=wrap;html=1;fillColor=#B2C9AB;fontColor=#46495D;strokeColor=#788AA3;labelBackgroundColor=none;" vertex="1" parent="1">
          <mxGeometry x="590" y="690" width="160" height="220" as="geometry">
            <mxRectangle x="310" y="330" width="80" height="30" as="alternateBounds" />
          </mxGeometry>
        </mxCell>
        <mxCell id="WnngII1H0hZmlAFaV6ZT-20" value="&lt;table style=&quot;border-collapse:&lt;br/&gt; collapse;width:140pt&quot; width=&quot;187&quot; cellspacing=&quot;0&quot; cellpadding=&quot;0&quot; border=&quot;0&quot;&gt; &lt;colgroup&gt;&lt;col style=&quot;mso-width-source:userset;mso-width-alt:6838;width:140pt&quot; width=&quot;187&quot;&gt;&lt;/colgroup&gt; &lt;tbody&gt;&lt;tr style=&quot;height:15.0pt&quot; height=&quot;20&quot;&gt;  &lt;td style=&quot;height:15.0pt;width:140pt&quot; width=&quot;187&quot; class=&quot;xl65&quot; height=&quot;20&quot;&gt;id_tratamiento&lt;/td&gt; &lt;/tr&gt; &lt;tr style=&quot;height:15.0pt&quot; height=&quot;20&quot;&gt;  &lt;td style=&quot;height:15.0pt;border-top:none&quot; class=&quot;xl65&quot; height=&quot;20&quot;&gt;categoria&lt;/td&gt; &lt;/tr&gt; &lt;tr style=&quot;height:15.0pt&quot; height=&quot;20&quot;&gt;  &lt;td style=&quot;height:15.0pt;border-top:none&quot; class=&quot;xl65&quot; height=&quot;20&quot;&gt;nombre_tratamiento&lt;/td&gt; &lt;/tr&gt; &lt;tr style=&quot;height:15.0pt&quot; height=&quot;20&quot;&gt;  &lt;td style=&quot;height:15.0pt;border-top:none&quot; class=&quot;xl65&quot; height=&quot;20&quot;&gt;descripcion_tratamiento&lt;/td&gt; &lt;/tr&gt; &lt;tr style=&quot;height:15.0pt&quot; height=&quot;20&quot;&gt;  &lt;td style=&quot;height:15.0pt;border-top:none&quot; class=&quot;xl65&quot; height=&quot;20&quot;&gt;precio_tratamiento&lt;/td&gt; &lt;/tr&gt; &lt;tr style=&quot;height:15.0pt&quot; height=&quot;20&quot;&gt;  &lt;td style=&quot;height:15.0pt;border-top:none&quot; class=&quot;xl65&quot; height=&quot;20&quot;&gt;duracion_tratamiento&lt;/td&gt; &lt;/tr&gt;&lt;/tbody&gt;&lt;/table&gt;" style="align=left;strokeColor=none;fillColor=none;spacingLeft=4;fontSize=12;verticalAlign=top;resizable=0;rotatable=0;part=1;html=1;labelBackgroundColor=none;fontColor=#46495D;" vertex="1" parent="WnngII1H0hZmlAFaV6ZT-19">
          <mxGeometry y="20" width="160" height="200" as="geometry" />
        </mxCell>
        <mxCell id="WnngII1H0hZmlAFaV6ZT-21" value="RECEPCIONISTAS" style="swimlane;childLayout=stackLayout;horizontal=1;startSize=20;horizontalStack=0;rounded=1;fontSize=14;fontStyle=0;strokeWidth=2;resizeParent=0;resizeLast=1;shadow=0;dashed=0;align=center;arcSize=4;whiteSpace=wrap;html=1;fillColor=#B2C9AB;fontColor=#46495D;strokeColor=#788AA3;labelBackgroundColor=none;" vertex="1" parent="1">
          <mxGeometry x="40" y="-100" width="160" height="220" as="geometry">
            <mxRectangle x="310" y="330" width="80" height="30" as="alternateBounds" />
          </mxGeometry>
        </mxCell>
        <mxCell id="WnngII1H0hZmlAFaV6ZT-22" value="&lt;table style=&quot;border-collapse:&lt;br/&gt; collapse;width:140pt&quot; width=&quot;187&quot; cellspacing=&quot;0&quot; cellpadding=&quot;0&quot; border=&quot;0&quot;&gt; &lt;colgroup&gt;&lt;col style=&quot;mso-width-source:userset;mso-width-alt:6838;width:140pt&quot; width=&quot;187&quot;&gt;&lt;/colgroup&gt; &lt;tbody&gt;&lt;tr style=&quot;height:15.0pt&quot; height=&quot;20&quot;&gt;  &lt;td style=&quot;height:15.0pt;width:140pt&quot; width=&quot;187&quot; class=&quot;xl65&quot; height=&quot;20&quot;&gt;&lt;table style=&quot;border-collapse:&lt;br/&gt; collapse;width:140pt&quot; width=&quot;187&quot; cellspacing=&quot;0&quot; cellpadding=&quot;0&quot; border=&quot;0&quot;&gt; &lt;colgroup&gt;&lt;col style=&quot;mso-width-source:userset;mso-width-alt:6838;width:140pt&quot; width=&quot;187&quot;&gt;&lt;/colgroup&gt; &lt;tbody&gt;&lt;tr style=&quot;height:15.0pt&quot; height=&quot;20&quot;&gt;  &lt;td style=&quot;height:15.0pt;width:140pt&quot; width=&quot;187&quot; class=&quot;xl65&quot; height=&quot;20&quot;&gt;id_recepcionista (PK)&lt;/td&gt; &lt;/tr&gt; &lt;tr style=&quot;height:15.0pt&quot; height=&quot;20&quot;&gt;  &lt;td style=&quot;height:15.0pt;border-top:none&quot; class=&quot;xl65&quot; height=&quot;20&quot;&gt;nombre_recepcionista&lt;/td&gt; &lt;/tr&gt; &lt;tr style=&quot;height:15.0pt&quot; height=&quot;20&quot;&gt;  &lt;td style=&quot;height:15.0pt;border-top:none&quot; class=&quot;xl65&quot; height=&quot;20&quot;&gt;apellido_recepcionista&lt;/td&gt; &lt;/tr&gt; &lt;tr style=&quot;height:15.0pt&quot; height=&quot;20&quot;&gt;  &lt;td style=&quot;height:15.0pt;border-top:none&quot; class=&quot;xl65&quot; height=&quot;20&quot;&gt;tel_recepcionista&lt;/td&gt; &lt;/tr&gt; &lt;tr style=&quot;height:15.0pt&quot; height=&quot;20&quot;&gt;  &lt;td style=&quot;height:15.0pt;border-top:none&quot; class=&quot;xl65&quot; height=&quot;20&quot;&gt;direccion_recepcionista&lt;/td&gt; &lt;/tr&gt; &lt;tr style=&quot;height:15.0pt&quot; height=&quot;20&quot;&gt;  &lt;td style=&quot;height:15.0pt;border-top:none&quot; class=&quot;xl65&quot; height=&quot;20&quot;&gt;localidad_recepcionista&lt;/td&gt; &lt;/tr&gt; &lt;tr style=&quot;height:15.0pt&quot; height=&quot;20&quot;&gt;  &lt;td style=&quot;height:15.0pt;border-top:none&quot; class=&quot;xl65&quot; height=&quot;20&quot;&gt;fecha_ingreso_recepcionista&lt;/td&gt; &lt;/tr&gt; &lt;tr style=&quot;height:15.0pt&quot; height=&quot;20&quot;&gt;  &lt;td style=&quot;height:15.0pt;border-top:none&quot; class=&quot;xl65&quot; height=&quot;20&quot;&gt;dispo_recepcionista&lt;/td&gt; &lt;/tr&gt; &lt;tr style=&quot;height:15.0pt&quot; height=&quot;20&quot;&gt;  &lt;td style=&quot;height:15.0pt;border-top:none&quot; class=&quot;xl65&quot; height=&quot;20&quot;&gt;id_sucursal (FK)&lt;/td&gt; &lt;/tr&gt;&lt;/tbody&gt;&lt;/table&gt;&lt;/td&gt; &lt;/tr&gt; &lt;tr style=&quot;height:15.0pt&quot; height=&quot;20&quot;&gt;  &lt;td style=&quot;height:15.0pt;border-top:none&quot; class=&quot;xl65&quot; height=&quot;20&quot;&gt;&lt;/td&gt;&lt;/tr&gt;&lt;tr style=&quot;height:15.0pt&quot; height=&quot;20&quot;&gt;&lt;td style=&quot;height:15.0pt;border-top:none&quot; class=&quot;xl65&quot; height=&quot;20&quot;&gt;&lt;br&gt;&lt;/td&gt; &lt;/tr&gt; &lt;tr style=&quot;height:15.0pt&quot; height=&quot;20&quot;&gt;  &lt;td style=&quot;height:15.0pt;border-top:none&quot; class=&quot;xl65&quot; height=&quot;20&quot;&gt;&lt;br&gt;&lt;/td&gt; &lt;/tr&gt; &lt;tr style=&quot;height:15.0pt&quot; height=&quot;20&quot;&gt;  &lt;td style=&quot;height:15.0pt;border-top:none&quot; class=&quot;xl65&quot; height=&quot;20&quot;&gt;&lt;br&gt;&lt;/td&gt; &lt;/tr&gt; &lt;tr style=&quot;height:15.0pt&quot; height=&quot;20&quot;&gt;  &lt;td style=&quot;height:15.0pt;border-top:none&quot; class=&quot;xl65&quot; height=&quot;20&quot;&gt;&lt;br&gt;&lt;/td&gt; &lt;/tr&gt; &lt;tr style=&quot;height:15.0pt&quot; height=&quot;20&quot;&gt;  &lt;td style=&quot;height:15.0pt;border-top:none&quot; class=&quot;xl65&quot; height=&quot;20&quot;&gt;&lt;br&gt;&lt;/td&gt; &lt;/tr&gt; &lt;tr style=&quot;height:15.0pt&quot; height=&quot;20&quot;&gt;  &lt;td style=&quot;height:15.0pt;border-top:none&quot; class=&quot;xl65&quot; height=&quot;20&quot;&gt;&lt;br&gt;&lt;/td&gt; &lt;/tr&gt; &lt;tr style=&quot;height:15.0pt&quot; height=&quot;20&quot;&gt;  &lt;td style=&quot;height:15.0pt;border-top:none&quot; class=&quot;xl65&quot; height=&quot;20&quot;&gt;&lt;br&gt;&lt;/td&gt; &lt;/tr&gt;&lt;/tbody&gt;&lt;/table&gt;" style="align=left;strokeColor=none;fillColor=none;spacingLeft=4;fontSize=12;verticalAlign=top;resizable=0;rotatable=0;part=1;html=1;labelBackgroundColor=none;fontColor=#46495D;" vertex="1" parent="WnngII1H0hZmlAFaV6ZT-21">
          <mxGeometry y="20" width="160" height="200" as="geometry" />
        </mxCell>
        <mxCell id="WnngII1H0hZmlAFaV6ZT-24" value="PACIENTES" style="swimlane;childLayout=stackLayout;horizontal=1;startSize=20;horizontalStack=0;rounded=1;fontSize=14;fontStyle=0;strokeWidth=2;resizeParent=0;resizeLast=1;shadow=0;dashed=0;align=center;arcSize=4;whiteSpace=wrap;html=1;fillColor=#B2C9AB;fontColor=#46495D;strokeColor=#788AA3;labelBackgroundColor=none;" vertex="1" parent="1">
          <mxGeometry x="460" y="-90" width="160" height="250" as="geometry">
            <mxRectangle x="310" y="330" width="80" height="30" as="alternateBounds" />
          </mxGeometry>
        </mxCell>
        <mxCell id="WnngII1H0hZmlAFaV6ZT-25" value="&lt;table style=&quot;border-collapse:&lt;br/&gt; collapse;width:140pt&quot; width=&quot;187&quot; cellspacing=&quot;0&quot; cellpadding=&quot;0&quot; border=&quot;0&quot;&gt; &lt;colgroup&gt;&lt;col style=&quot;mso-width-source:userset;mso-width-alt:6838;width:140pt&quot; width=&quot;187&quot;&gt;&lt;/colgroup&gt; &lt;tbody&gt;&lt;tr style=&quot;height:15.0pt&quot; height=&quot;20&quot;&gt;  &lt;td style=&quot;height:15.0pt;width:140pt&quot; width=&quot;187&quot; class=&quot;xl65&quot; height=&quot;20&quot;&gt;id_paciente&lt;/td&gt; &lt;/tr&gt; &lt;tr style=&quot;height:15.0pt&quot; height=&quot;20&quot;&gt;  &lt;td style=&quot;height:15.0pt;border-top:none&quot; class=&quot;xl65&quot; height=&quot;20&quot;&gt;nombre_paciente&lt;/td&gt; &lt;/tr&gt; &lt;tr style=&quot;height:15.0pt&quot; height=&quot;20&quot;&gt;  &lt;td style=&quot;height:15.0pt;border-top:none&quot; class=&quot;xl65&quot; height=&quot;20&quot;&gt;apellido_paciente&lt;/td&gt; &lt;/tr&gt; &lt;tr style=&quot;height:15.0pt&quot; height=&quot;20&quot;&gt;  &lt;td style=&quot;height:15.0pt;border-top:none&quot; class=&quot;xl65&quot; height=&quot;20&quot;&gt;tel_paciente&lt;/td&gt; &lt;/tr&gt; &lt;tr style=&quot;height:15.0pt&quot; height=&quot;20&quot;&gt;  &lt;td style=&quot;height:15.0pt;border-top:none&quot; class=&quot;xl65&quot; height=&quot;20&quot;&gt;direccion_paciente&lt;/td&gt; &lt;/tr&gt; &lt;tr style=&quot;height:15.0pt&quot; height=&quot;20&quot;&gt;  &lt;td style=&quot;height:15.0pt;border-top:none&quot; class=&quot;xl65&quot; height=&quot;20&quot;&gt;localidad_paciente&lt;/td&gt; &lt;/tr&gt; &lt;tr style=&quot;height:15.0pt&quot; height=&quot;20&quot;&gt;  &lt;td style=&quot;height:15.0pt;border-top:none&quot; class=&quot;xl65&quot; height=&quot;20&quot;&gt;codigo_postal&lt;/td&gt; &lt;/tr&gt; &lt;tr style=&quot;height:15.0pt&quot; height=&quot;20&quot;&gt;  &lt;td style=&quot;height:15.0pt;border-top:none&quot; class=&quot;xl65&quot; height=&quot;20&quot;&gt;mail_paciente&lt;/td&gt; &lt;/tr&gt; &lt;tr style=&quot;height:15.0pt&quot; height=&quot;20&quot;&gt;  &lt;td style=&quot;height:15.0pt;border-top:none&quot; class=&quot;xl65&quot; height=&quot;20&quot;&gt;fecha_nacimiento_paciente&lt;/td&gt; &lt;/tr&gt; &lt;tr style=&quot;height:15.0pt&quot; height=&quot;20&quot;&gt;  &lt;td style=&quot;height:15.0pt;border-top:none&quot; class=&quot;xl65&quot; height=&quot;20&quot;&gt;sexo_paciente&lt;br&gt;&lt;table style=&quot;border-collapse:&lt;br/&gt; collapse;width:140pt&quot; width=&quot;187&quot; cellspacing=&quot;0&quot; cellpadding=&quot;0&quot; border=&quot;0&quot;&gt;&lt;tbody&gt;&lt;tr style=&quot;height:15.0pt&quot; height=&quot;20&quot;&gt;  &lt;td style=&quot;height:15.0pt;width:140pt&quot; width=&quot;187&quot; class=&quot;xl65&quot; height=&quot;20&quot;&gt;id_sucursal (FK)&lt;/td&gt;&lt;/tr&gt;&lt;/tbody&gt;&lt;/table&gt;&lt;/td&gt; &lt;/tr&gt;&lt;/tbody&gt;&lt;/table&gt;" style="align=left;strokeColor=none;fillColor=none;spacingLeft=4;fontSize=12;verticalAlign=top;resizable=0;rotatable=0;part=1;html=1;labelBackgroundColor=none;fontColor=#46495D;" vertex="1" parent="WnngII1H0hZmlAFaV6ZT-24">
          <mxGeometry y="20" width="160" height="230" as="geometry" />
        </mxCell>
        <mxCell id="WnngII1H0hZmlAFaV6ZT-33" style="edgeStyle=orthogonalEdgeStyle;rounded=0;orthogonalLoop=1;jettySize=auto;html=1;entryX=0.138;entryY=0;entryDx=0;entryDy=0;entryPerimeter=0;labelBackgroundColor=none;strokeColor=#788AA3;fontColor=default;" edge="1" parent="1" source="WnngII1H0hZmlAFaV6ZT-9" target="WnngII1H0hZmlAFaV6ZT-17">
          <mxGeometry relative="1" as="geometry" />
        </mxCell>
        <mxCell id="WnngII1H0hZmlAFaV6ZT-38" value="TIENE&lt;br&gt;" style="rhombus;whiteSpace=wrap;html=1;labelBackgroundColor=none;fillColor=#B2C9AB;strokeColor=#788AA3;fontColor=#46495D;" vertex="1" parent="1">
          <mxGeometry x="170" y="150" width="80" height="80" as="geometry" />
        </mxCell>
        <mxCell id="WnngII1H0hZmlAFaV6ZT-40" value="TIENE" style="rhombus;whiteSpace=wrap;html=1;labelBackgroundColor=none;fillColor=#B2C9AB;strokeColor=#788AA3;fontColor=#46495D;" vertex="1" parent="1">
          <mxGeometry x="130" y="500" width="80" height="80" as="geometry" />
        </mxCell>
        <mxCell id="WnngII1H0hZmlAFaV6ZT-50" style="edgeStyle=orthogonalEdgeStyle;rounded=0;orthogonalLoop=1;jettySize=auto;html=1;entryX=0.5;entryY=0;entryDx=0;entryDy=0;labelBackgroundColor=none;strokeColor=#788AA3;fontColor=default;" edge="1" parent="1" source="WnngII1H0hZmlAFaV6ZT-41" target="WnngII1H0hZmlAFaV6ZT-19">
          <mxGeometry relative="1" as="geometry" />
        </mxCell>
        <mxCell id="WnngII1H0hZmlAFaV6ZT-41" value="VENTAS" style="swimlane;childLayout=stackLayout;horizontal=1;startSize=20;horizontalStack=0;rounded=1;fontSize=14;fontStyle=0;strokeWidth=2;resizeParent=0;resizeLast=1;shadow=0;dashed=0;align=center;arcSize=4;whiteSpace=wrap;html=1;fillColor=#B2C9AB;fontColor=#46495D;strokeColor=#788AA3;labelBackgroundColor=none;" vertex="1" parent="1">
          <mxGeometry x="590" y="350" width="160" height="220" as="geometry">
            <mxRectangle x="310" y="330" width="80" height="30" as="alternateBounds" />
          </mxGeometry>
        </mxCell>
        <mxCell id="WnngII1H0hZmlAFaV6ZT-42" value="&lt;table style=&quot;border-collapse:&lt;br/&gt; collapse;width:140pt&quot; width=&quot;187&quot; cellspacing=&quot;0&quot; cellpadding=&quot;0&quot; border=&quot;0&quot;&gt; &lt;colgroup&gt;&lt;col style=&quot;mso-width-source:userset;mso-width-alt:6838;width:140pt&quot; width=&quot;187&quot;&gt;&lt;/colgroup&gt; &lt;tbody&gt;&lt;tr style=&quot;height:15.0pt&quot; height=&quot;20&quot;&gt;  &lt;td style=&quot;height:15.0pt;width:140pt&quot; width=&quot;187&quot; class=&quot;xl63&quot; height=&quot;20&quot;&gt;id_venta (PK)&lt;/td&gt; &lt;/tr&gt; &lt;tr style=&quot;height:15.0pt&quot; height=&quot;20&quot;&gt;  &lt;td style=&quot;height:15.0pt;border-top:none&quot; class=&quot;xl63&quot; height=&quot;20&quot;&gt;id_paciente (FK)&lt;/td&gt; &lt;/tr&gt; &lt;tr style=&quot;height:15.0pt&quot; height=&quot;20&quot;&gt;  &lt;td style=&quot;height:15.0pt;border-top:none&quot; class=&quot;xl63&quot; height=&quot;20&quot;&gt;id_sucursal (FK)&lt;/td&gt; &lt;/tr&gt; &lt;tr style=&quot;height:15.0pt&quot; height=&quot;20&quot;&gt;  &lt;td style=&quot;height:15.0pt;border-top:none&quot; class=&quot;xl63&quot; height=&quot;20&quot;&gt;id_tratamiento (FK)&lt;/td&gt; &lt;/tr&gt; &lt;tr style=&quot;height:15.0pt&quot; height=&quot;20&quot;&gt;  &lt;td style=&quot;height:15.0pt;border-top:none&quot; class=&quot;xl63&quot; height=&quot;20&quot;&gt;id_operadora (FK)&lt;/td&gt; &lt;/tr&gt; &lt;tr style=&quot;height:15.0pt&quot; height=&quot;20&quot;&gt;  &lt;td style=&quot;height:15.0pt;border-top:none&quot; class=&quot;xl63&quot; height=&quot;20&quot;&gt;precio_tratamiento (FK)&lt;/td&gt; &lt;/tr&gt; &lt;tr style=&quot;height:15.0pt&quot; height=&quot;20&quot;&gt;  &lt;td style=&quot;height:15.0pt;border-top:none&quot; class=&quot;xl63&quot; height=&quot;20&quot;&gt;fecha_venta&lt;/td&gt; &lt;/tr&gt; &lt;tr style=&quot;height:15.0pt&quot; height=&quot;20&quot;&gt;  &lt;td style=&quot;height:15.0pt;border-top:none&quot; class=&quot;xl63&quot; height=&quot;20&quot;&gt;dia_venta&lt;/td&gt; &lt;/tr&gt;&lt;/tbody&gt;&lt;/table&gt;" style="align=left;strokeColor=none;fillColor=none;spacingLeft=4;fontSize=12;verticalAlign=top;resizable=0;rotatable=0;part=1;html=1;labelBackgroundColor=none;fontColor=#46495D;" vertex="1" parent="WnngII1H0hZmlAFaV6ZT-41">
          <mxGeometry y="20" width="160" height="200" as="geometry" />
        </mxCell>
        <mxCell id="WnngII1H0hZmlAFaV6ZT-43" style="edgeStyle=orthogonalEdgeStyle;rounded=0;orthogonalLoop=1;jettySize=auto;html=1;labelBackgroundColor=none;strokeColor=#788AA3;fontColor=default;" edge="1" parent="1" source="WnngII1H0hZmlAFaV6ZT-9" target="WnngII1H0hZmlAFaV6ZT-42">
          <mxGeometry relative="1" as="geometry" />
        </mxCell>
        <mxCell id="WnngII1H0hZmlAFaV6ZT-39" value="REALIZA" style="rhombus;whiteSpace=wrap;html=1;labelBackgroundColor=none;fillColor=#B2C9AB;strokeColor=#788AA3;fontColor=#46495D;" vertex="1" parent="1">
          <mxGeometry x="430" y="380" width="80" height="80" as="geometry" />
        </mxCell>
        <mxCell id="WnngII1H0hZmlAFaV6ZT-46" style="edgeStyle=orthogonalEdgeStyle;rounded=0;orthogonalLoop=1;jettySize=auto;html=1;entryX=0.863;entryY=-0.014;entryDx=0;entryDy=0;entryPerimeter=0;labelBackgroundColor=none;strokeColor=#788AA3;fontColor=default;" edge="1" parent="1" source="WnngII1H0hZmlAFaV6ZT-25" target="WnngII1H0hZmlAFaV6ZT-41">
          <mxGeometry relative="1" as="geometry" />
        </mxCell>
        <mxCell id="WnngII1H0hZmlAFaV6ZT-47" style="edgeStyle=orthogonalEdgeStyle;rounded=0;orthogonalLoop=1;jettySize=auto;html=1;exitX=1;exitY=0.25;exitDx=0;exitDy=0;entryX=0.125;entryY=1;entryDx=0;entryDy=0;entryPerimeter=0;labelBackgroundColor=none;strokeColor=#788AA3;fontColor=default;" edge="1" parent="1" source="WnngII1H0hZmlAFaV6ZT-9" target="WnngII1H0hZmlAFaV6ZT-25">
          <mxGeometry relative="1" as="geometry" />
        </mxCell>
        <mxCell id="WnngII1H0hZmlAFaV6ZT-36" value="TIENE" style="rhombus;whiteSpace=wrap;html=1;labelBackgroundColor=none;fillColor=#B2C9AB;strokeColor=#788AA3;fontColor=#46495D;" vertex="1" parent="1">
          <mxGeometry x="440" y="240" width="80" height="80" as="geometry" />
        </mxCell>
        <mxCell id="WnngII1H0hZmlAFaV6ZT-48" style="edgeStyle=orthogonalEdgeStyle;rounded=0;orthogonalLoop=1;jettySize=auto;html=1;exitX=1;exitY=0.25;exitDx=0;exitDy=0;entryX=-0.006;entryY=0.795;entryDx=0;entryDy=0;entryPerimeter=0;labelBackgroundColor=none;strokeColor=#788AA3;fontColor=default;" edge="1" parent="1" source="WnngII1H0hZmlAFaV6ZT-18" target="WnngII1H0hZmlAFaV6ZT-42">
          <mxGeometry relative="1" as="geometry" />
        </mxCell>
        <mxCell id="WnngII1H0hZmlAFaV6ZT-49" value="ATIENDE" style="rhombus;whiteSpace=wrap;html=1;labelBackgroundColor=none;fillColor=#B2C9AB;strokeColor=#788AA3;fontColor=#46495D;" vertex="1" parent="1">
          <mxGeometry x="360" y="540" width="80" height="80" as="geometry" />
        </mxCell>
        <mxCell id="WnngII1H0hZmlAFaV6ZT-51" value="CONTIENE" style="rhombus;whiteSpace=wrap;html=1;labelBackgroundColor=none;fillColor=#B2C9AB;strokeColor=#788AA3;fontColor=#46495D;" vertex="1" parent="1">
          <mxGeometry x="630" y="580" width="80" height="80" as="geometry" />
        </mxCell>
        <mxCell id="WnngII1H0hZmlAFaV6ZT-53" value="1" style="ellipse;whiteSpace=wrap;html=1;strokeColor=#788AA3;fontColor=#46495D;fillColor=#B2C9AB;" vertex="1" parent="1">
          <mxGeometry x="340" y="340" width="20" height="20" as="geometry" />
        </mxCell>
        <mxCell id="WnngII1H0hZmlAFaV6ZT-54" value="1" style="ellipse;whiteSpace=wrap;html=1;strokeColor=#788AA3;fontColor=#46495D;fillColor=#B2C9AB;" vertex="1" parent="1">
          <mxGeometry x="260" y="210" width="20" height="20" as="geometry" />
        </mxCell>
        <mxCell id="WnngII1H0hZmlAFaV6ZT-56" value="1" style="ellipse;whiteSpace=wrap;html=1;strokeColor=#788AA3;fontColor=#46495D;fillColor=#B2C9AB;" vertex="1" parent="1">
          <mxGeometry x="340" y="290" width="20" height="20" as="geometry" />
        </mxCell>
        <mxCell id="WnngII1H0hZmlAFaV6ZT-57" value="1" style="ellipse;whiteSpace=wrap;html=1;strokeColor=#788AA3;fontColor=#46495D;fillColor=#B2C9AB;" vertex="1" parent="1">
          <mxGeometry x="260" y="480" width="20" height="20" as="geometry" />
        </mxCell>
        <mxCell id="WnngII1H0hZmlAFaV6ZT-58" value="1" style="ellipse;whiteSpace=wrap;html=1;strokeColor=#788AA3;fontColor=#46495D;fillColor=#B2C9AB;" vertex="1" parent="1">
          <mxGeometry x="203" y="646" width="20" height="20" as="geometry" />
        </mxCell>
        <mxCell id="WnngII1H0hZmlAFaV6ZT-59" value="1" style="ellipse;whiteSpace=wrap;html=1;strokeColor=#788AA3;fontColor=#46495D;fillColor=#B2C9AB;" vertex="1" parent="1">
          <mxGeometry x="690" y="570" width="20" height="20" as="geometry" />
        </mxCell>
        <mxCell id="WnngII1H0hZmlAFaV6ZT-61" value="1" style="ellipse;whiteSpace=wrap;html=1;strokeColor=#788AA3;fontColor=#46495D;fillColor=#B2C9AB;" vertex="1" parent="1">
          <mxGeometry x="543" y="163" width="20" height="20" as="geometry" />
        </mxCell>
        <mxCell id="WnngII1H0hZmlAFaV6ZT-62" value="&lt;font style=&quot;font-size: 24px;&quot;&gt;&lt;b style=&quot;&quot;&gt;*&lt;/b&gt;&lt;/font&gt;" style="ellipse;whiteSpace=wrap;html=1;strokeColor=#788AA3;fontColor=#46495D;fillColor=#B2C9AB;align=center;" vertex="1" parent="1">
          <mxGeometry x="700" y="320" width="20" height="20" as="geometry" />
        </mxCell>
        <mxCell id="WnngII1H0hZmlAFaV6ZT-63" value="&lt;font style=&quot;font-size: 24px;&quot;&gt;&lt;b style=&quot;&quot;&gt;*&lt;/b&gt;&lt;/font&gt;" style="ellipse;whiteSpace=wrap;html=1;strokeColor=#788AA3;fontColor=#46495D;fillColor=#B2C9AB;align=center;" vertex="1" parent="1">
          <mxGeometry x="567" y="442" width="20" height="20" as="geometry" />
        </mxCell>
        <mxCell id="WnngII1H0hZmlAFaV6ZT-64" value="&lt;font style=&quot;font-size: 24px;&quot;&gt;&lt;b style=&quot;&quot;&gt;*&lt;/b&gt;&lt;/font&gt;" style="ellipse;whiteSpace=wrap;html=1;strokeColor=#788AA3;fontColor=#46495D;fillColor=#B2C9AB;align=center;" vertex="1" parent="1">
          <mxGeometry x="452" y="163" width="20" height="20" as="geometry" />
        </mxCell>
        <mxCell id="WnngII1H0hZmlAFaV6ZT-65" value="&lt;font style=&quot;font-size: 24px;&quot;&gt;&lt;b style=&quot;&quot;&gt;*&lt;/b&gt;&lt;/font&gt;" style="ellipse;whiteSpace=wrap;html=1;strokeColor=#788AA3;fontColor=#46495D;fillColor=#B2C9AB;align=center;" vertex="1" parent="1">
          <mxGeometry x="128" y="130" width="20" height="20" as="geometry" />
        </mxCell>
        <mxCell id="WnngII1H0hZmlAFaV6ZT-69" value="&lt;font style=&quot;font-size: 24px;&quot;&gt;&lt;b style=&quot;&quot;&gt;*&lt;/b&gt;&lt;/font&gt;" style="ellipse;whiteSpace=wrap;html=1;strokeColor=#788AA3;fontColor=#46495D;fillColor=#B2C9AB;align=center;" vertex="1" parent="1">
          <mxGeometry x="690" y="660" width="20" height="20" as="geometry" />
        </mxCell>
        <mxCell id="WnngII1H0hZmlAFaV6ZT-70" value="&lt;font style=&quot;font-size: 24px;&quot;&gt;&lt;b style=&quot;&quot;&gt;*&lt;/b&gt;&lt;/font&gt;" style="ellipse;whiteSpace=wrap;html=1;strokeColor=#788AA3;fontColor=#46495D;fillColor=#B2C9AB;align=center;" vertex="1" parent="1">
          <mxGeometry x="567" y="539" width="20" height="20" as="geometry" />
        </mxCell>
        <mxCell id="WnngII1H0hZmlAFaV6ZT-71" value="&lt;font style=&quot;font-size: 24px;&quot;&gt;&lt;b style=&quot;&quot;&gt;*&lt;/b&gt;&lt;/font&gt;" style="ellipse;whiteSpace=wrap;html=1;strokeColor=#788AA3;fontColor=#46495D;fillColor=#B2C9AB;align=center;" vertex="1" parent="1">
          <mxGeometry x="67" y="568" width="20" height="20" as="geometry" />
        </mxCell>
      </root>
    </mxGraphModel>
  </diagram>
</mxfile>
